<svg id="Group_27103" data-name="Group 27103" xmlns="http://www.w3.org/2000/svg" xmlns:xlink="http://www.w3.org/1999/xlink" width="1922.5" height="919" viewBox="0 0 1922.5 919">
  <defs>
    <clipPath id="clip-path">
      <rect id="Rectangle_3478" data-name="Rectangle 3478" width="1920" height="428" stroke="#707070" stroke-width="3"/>
    </clipPath>
    <linearGradient id="linear-gradient" x1="0.5" y1="1" x2="0.5" y2="-0.715" gradientUnits="objectBoundingBox">
      <stop offset="0" stop-color="#55b7ff"/>
      <stop offset="1" stop-color="#fff" stop-opacity="0"/>
      <stop offset="1" stop-color="#0048ab"/>
    </linearGradient>
    <linearGradient id="linear-gradient-2" x1="0.5" x2="0.5" y2="0.852" gradientUnits="objectBoundingBox">
      <stop offset="0" stop-color="#003495"/>
      <stop offset="1" stop-color="#0457b9"/>
    </linearGradient>
    <clipPath id="clip-path-2">
      <rect id="Rectangle_3334" data-name="Rectangle 3334" width="1920" height="428" transform="translate(0 51)" stroke="#707070" stroke-width="3"/>
    </clipPath>
  </defs>
  <rect id="Rectangle_4101" data-name="Rectangle 4101" width="1920" height="877" transform="translate(0 42)" fill="#f7f6ee"/>
  <g id="Group_11078" data-name="Group 11078" transform="translate(2.5 50)">
    <line id="Line_631" data-name="Line 631" x2="1920" transform="translate(0 8.5)" fill="none" stroke="#fff" stroke-width="1" stroke-dasharray="3"/>
    <path id="Path_49493" data-name="Path 49493" d="M20.2-12.8H12.76v7.28H10.24V-12.8H2.8v-2.36h7.44v-7.32h2.52v7.32H20.2Z" transform="translate(202.5 22.48)" fill="#fff"/>
  </g>
  <g id="Mask_Group_145" data-name="Mask Group 145" transform="translate(1 10)" opacity="0.1" clip-path="url(#clip-path)">
    <path id="Path_26075_5_" d="M1920,738.9c-108.9,119.1-245.4,208.9-411.6,207-126-1.4-246.7-49.4-358.1-104.5C929.9,732.5,714.9,563.2,464,535.2,277.6,514.3,122.4,604.7-.4,738.9" transform="translate(0 -736)" fill="none" stroke="#09f" stroke-miterlimit="10" stroke-width="3"/>
    <path id="Path_26075_10_" d="M1920,728.9c-108.9,119.1-245.4,208.9-411.6,207-126-1.4-246.7-49.4-358.1-104.5C929.9,722.5,714.9,553.2,464,525.2,277.6,504.3,122.4,594.7-.4,728.9" transform="translate(0 -736)" fill="none" stroke="#09f" stroke-miterlimit="10" stroke-width="3"/>
    <path id="Path_26075_9_" d="M1920,718.9c-108.9,119.1-245.4,208.9-411.6,207-126-1.4-246.7-49.4-358.1-104.5C929.9,712.5,714.9,543.2,464,515.2,277.6,494.3,122.4,584.7-.4,718.9" transform="translate(0 -736)" fill="none" stroke="#09f" stroke-miterlimit="10" stroke-width="3"/>
    <path id="Path_26075_8_" d="M1920,708.9c-108.9,119.1-245.4,208.9-411.6,207-126-1.4-246.7-49.4-358.1-104.5C929.9,702.5,714.9,533.2,464,505.2,277.6,484.3,122.4,574.7-.4,708.9" transform="translate(0 -736)" fill="none" stroke="#09f" stroke-miterlimit="10" stroke-width="3"/>
    <path id="Path_26075_7_" d="M1920,698.9c-108.9,119.1-245.4,208.9-411.6,207-126-1.4-246.7-49.4-358.1-104.5C929.9,692.5,714.9,523.2,464,495.2,277.6,474.3,122.4,564.7-.4,698.9" transform="translate(0 -736)" fill="none" stroke="#09f" stroke-miterlimit="10" stroke-width="3"/>
    <path id="Path_26075_18_" d="M1920,688.9c-108.9,119.1-245.4,208.9-411.6,207-126-1.4-246.7-49.4-358.1-104.5C929.9,682.5,714.9,513.2,464,485.2,277.6,464.3,122.4,554.7-.4,688.9" transform="translate(0 -736)" fill="none" stroke="#09f" stroke-miterlimit="10" stroke-width="3"/>
    <path id="Path_26075_17_" d="M1920,678.9c-108.9,119.1-245.4,208.9-411.6,207-126-1.4-246.7-49.4-358.1-104.5C929.9,672.5,714.9,503.2,464,475.2,277.6,454.3,122.4,544.7-.4,678.9" transform="translate(0 -736)" fill="none" stroke="#09f" stroke-miterlimit="10" stroke-width="3"/>
    <path id="Path_26075_16_" d="M1920,668.9c-108.9,119.1-245.4,208.9-411.6,207-126-1.4-246.7-49.4-358.1-104.5C929.9,662.5,714.9,493.2,464,465.2,277.6,444.3,122.4,534.7-.4,668.9" transform="translate(0 -736)" fill="none" stroke="#09f" stroke-miterlimit="10" stroke-width="3"/>
    <path id="Path_26075_15_" d="M1920,658.9c-108.9,119.1-245.4,208.9-411.6,207-126-1.4-246.7-49.4-358.1-104.5C929.9,652.5,714.9,483.2,464,455.2,277.6,434.3,122.4,524.7-.4,658.9" transform="translate(0 -736)" fill="none" stroke="#09f" stroke-miterlimit="10" stroke-width="3"/>
    <path id="Path_26075_14_" d="M1920,648.9c-108.9,119.1-245.4,208.9-411.6,207-126-1.4-246.7-49.4-358.1-104.5C929.9,642.5,714.9,473.2,464,445.2,277.6,424.3,122.4,514.7-.4,648.9" transform="translate(0 -736)" fill="none" stroke="#09f" stroke-miterlimit="10" stroke-width="3"/>
    <path id="Path_26075_13_" d="M1920,638.9c-108.9,119.1-245.4,208.9-411.6,207-126-1.4-246.7-49.4-358.1-104.5C929.9,632.5,714.9,463.2,464,435.2,277.6,414.3,122.4,504.7-.4,638.9" transform="translate(0 -736)" fill="none" stroke="#09f" stroke-miterlimit="10" stroke-width="3"/>
    <path id="Path_26075_12_" d="M1920,628.9c-108.9,119.1-245.4,208.9-411.6,207-126-1.4-246.7-49.4-358.1-104.5C929.9,622.5,714.9,453.2,464,425.2,277.6,404.3,122.4,494.7-.4,628.9" transform="translate(0 -736)" fill="none" stroke="#09f" stroke-miterlimit="10" stroke-width="3"/>
    <path id="Path_26075_11_" d="M1920,618.9c-108.9,119.1-245.4,208.9-411.6,207-126-1.4-246.7-49.4-358.1-104.5C929.9,612.5,714.9,443.2,464,415.2,277.6,394.3,122.4,484.7-.4,618.9" transform="translate(0 -736)" fill="none" stroke="#09f" stroke-miterlimit="10" stroke-width="3"/>
    <path id="Path_26075_34_" d="M1920,608.9c-108.9,119.1-245.4,208.9-411.6,207-126-1.4-246.7-49.4-358.1-104.5C929.9,602.5,714.9,433.2,464,405.2,277.6,384.3,122.4,474.7-.4,608.9" transform="translate(0 -736)" fill="none" stroke="#09f" stroke-miterlimit="10" stroke-width="3"/>
    <path id="Path_26075_33_" d="M1920,598.9c-108.9,119.1-245.4,208.9-411.6,207-126-1.4-246.7-49.4-358.1-104.5C929.9,592.5,714.9,423.2,464,395.2,277.6,374.3,122.4,464.7-.4,598.9" transform="translate(0 -736)" fill="none" stroke="#09f" stroke-miterlimit="10" stroke-width="3"/>
    <path id="Path_26075_32_" d="M1920,588.9c-108.9,119.1-245.4,208.9-411.6,207-126-1.4-246.7-49.4-358.1-104.5C929.9,582.5,714.9,413.2,464,385.2,277.6,364.3,122.4,454.7-.4,588.9" transform="translate(0 -736)" fill="none" stroke="#09f" stroke-miterlimit="10" stroke-width="3"/>
    <path id="Path_26075_31_" d="M1920,578.9c-108.9,119.1-245.4,208.9-411.6,207-126-1.4-246.7-49.4-358.1-104.5C929.9,572.5,714.9,403.2,464,375.2,277.6,354.3,122.4,444.7-.4,578.9" transform="translate(0 -736)" fill="none" stroke="#09f" stroke-miterlimit="10" stroke-width="3"/>
    <path id="Path_26075_30_" d="M1920,568.9c-108.9,119.1-245.4,208.9-411.6,207-126-1.4-246.7-49.4-358.1-104.5C929.9,562.5,714.9,393.2,464,365.2,277.6,344.3,122.4,434.7-.4,568.9" transform="translate(0 -736)" fill="none" stroke="#09f" stroke-miterlimit="10" stroke-width="3"/>
    <path id="Path_26075_29_" d="M1920,558.9c-108.9,119.1-245.4,208.9-411.6,207-126-1.4-246.7-49.4-358.1-104.5C929.9,552.5,714.9,383.2,464,355.2,277.6,334.3,122.4,424.7-.4,558.9" transform="translate(0 -736)" fill="none" stroke="#09f" stroke-miterlimit="10" stroke-width="3"/>
    <path id="Path_26075_28_" d="M1920,548.9c-108.9,119.1-245.4,208.9-411.6,207-126-1.4-246.7-49.4-358.1-104.5C929.9,542.5,714.9,373.2,464,345.2,277.6,324.3,122.4,414.7-.4,548.9" transform="translate(0 -736)" fill="none" stroke="#09f" stroke-miterlimit="10" stroke-width="3"/>
    <path id="Path_26075_27_" d="M1920,538.9c-108.9,119.1-245.4,208.9-411.6,207-126-1.4-246.7-49.4-358.1-104.5C929.9,532.5,714.9,363.2,464,335.2,277.6,314.3,122.4,404.7-.4,538.9" transform="translate(0 -736)" fill="none" stroke="#09f" stroke-miterlimit="10" stroke-width="3"/>
    <path id="Path_26075_26_" d="M1920,528.9c-108.9,119.1-245.4,208.9-411.6,207-126-1.4-246.7-49.4-358.1-104.5C929.9,522.5,714.9,353.2,464,325.2,277.6,304.3,122.4,394.7-.4,528.9" transform="translate(0 -736)" fill="none" stroke="#09f" stroke-miterlimit="10" stroke-width="3"/>
  </g>
  <g id="Group_23074" data-name="Group 23074" transform="translate(1 687.977)">
    <g id="Group_13040" data-name="Group 13040" transform="translate(0 44.023)">
      <path id="Path_64026" data-name="Path 64026" d="M.6,494.751c137.1,44.454,207.25-50.6,367.46-59.213S526.334,462.9,641.436,460.316c132.316-2.949,137.7-54.638,248.176-54.454,136.17.184,173.13,54.085,307.245,54.454,123.838.369,114.911-34.821,237.464-32.793,121.268,2.028,218.265,60.643,334.287,77.467,74.593,10.787,108.315.02,151.992-17.492V351.308H.6l.575,36.8Z" transform="translate(-0.6 -351.308)" opacity="0.3" fill="url(#linear-gradient)"/>
    </g>
    <path id="Path_64027" data-name="Path 64027" d="M.6,431.092c45.476,21.088,98.674,36.227,189.622,15.015s119.578-38.886,224.146-45.7c109.707-7.029,123.964,23.712,239.066,20.637,132.316-3.515,142.933-44.933,253.41-44.713,118.2-.691,151.523,57.008,285.638,57.447,123.838.439,136.627-46.6,259.18-44.181,121.268,2.416,153.955,56.066,272.4,56.505,85.556.439,152.863-27.284,196.54-48.152V301.308H.6l.575,92.715Z" transform="translate(-0.6 -301.308)" fill="#006fde"/>
  </g>
  <path id="Path_64028" data-name="Path 64028" d="M1920-45.853c-45.482,18.661-93.106,40.2-176.1,38.843-89.165-1.361-130.373-45.422-234.956-51.448-109.722-6.22-128.5,25.205-243.616,22.484-132.334-3.11-166.744-46.264-277.236-46.069-136.188.194-162.066,48.262-296.2,48.651C568.035-33,561.793-52.86,439.223-50.722,317.939-48.584,274.8-.483,156.338-.094,70.77.3,43.683-18.3,0-36.763V-820H1920Z" transform="translate(0 820)" fill="url(#linear-gradient-2)"/>
  <g id="Mask_Group_134" data-name="Mask Group 134" transform="translate(0 -51)" clip-path="url(#clip-path-2)">
    <g id="Group_13056" data-name="Group 13056" transform="translate(-0.4 -363.803)" opacity="0.1">
      <path id="Path_26075_4_" d="M1920,768.9c-108.9,119.1-245.4,208.9-411.6,207-126-1.4-246.7-49.4-358.1-104.5C929.9,762.5,714.9,593.2,464,565.2,277.6,544.3,122.4,634.7-.4,768.9" transform="translate(0.4 -162.197)" fill="none" stroke="#09f" stroke-miterlimit="10" stroke-width="3"/>
      <path id="Path_26075_2_" d="M1920,758.9c-108.9,119.1-245.4,208.9-411.6,207-126-1.4-246.7-49.4-358.1-104.5C929.9,752.5,714.9,583.2,464,555.2,277.6,534.3,122.4,624.7-.4,758.9" transform="translate(0.4 -162.197)" fill="none" stroke="#09f" stroke-miterlimit="10" stroke-width="3"/>
      <path id="Path_26075_6_" d="M1920,748.9c-108.9,119.1-245.4,208.9-411.6,207-126-1.4-246.7-49.4-358.1-104.5C929.9,742.5,714.9,573.2,464,545.2,277.6,524.3,122.4,614.7-.4,748.9" transform="translate(0.4 -162.197)" fill="none" stroke="#09f" stroke-miterlimit="10" stroke-width="3"/>
      <path id="Path_26075_5_2" data-name="Path_26075_5_" d="M1920,738.9c-108.9,119.1-245.4,208.9-411.6,207-126-1.4-246.7-49.4-358.1-104.5C929.9,732.5,714.9,563.2,464,535.2,277.6,514.3,122.4,604.7-.4,738.9" transform="translate(0.4 -162.197)" fill="none" stroke="#09f" stroke-miterlimit="10" stroke-width="3"/>
      <path id="Path_26075_10_2" data-name="Path_26075_10_" d="M1920,728.9c-108.9,119.1-245.4,208.9-411.6,207-126-1.4-246.7-49.4-358.1-104.5C929.9,722.5,714.9,553.2,464,525.2,277.6,504.3,122.4,594.7-.4,728.9" transform="translate(0.4 -162.197)" fill="none" stroke="#09f" stroke-miterlimit="10" stroke-width="3"/>
      <path id="Path_26075_9_2" data-name="Path_26075_9_" d="M1920,718.9c-108.9,119.1-245.4,208.9-411.6,207-126-1.4-246.7-49.4-358.1-104.5C929.9,712.5,714.9,543.2,464,515.2,277.6,494.3,122.4,584.7-.4,718.9" transform="translate(0.4 -162.197)" fill="none" stroke="#09f" stroke-miterlimit="10" stroke-width="3"/>
      <path id="Path_26075_8_2" data-name="Path_26075_8_" d="M1920,708.9c-108.9,119.1-245.4,208.9-411.6,207-126-1.4-246.7-49.4-358.1-104.5C929.9,702.5,714.9,533.2,464,505.2,277.6,484.3,122.4,574.7-.4,708.9" transform="translate(0.4 -162.197)" fill="none" stroke="#09f" stroke-miterlimit="10" stroke-width="3"/>
      <path id="Path_26075_7_2" data-name="Path_26075_7_" d="M1920,698.9c-108.9,119.1-245.4,208.9-411.6,207-126-1.4-246.7-49.4-358.1-104.5C929.9,692.5,714.9,523.2,464,495.2,277.6,474.3,122.4,564.7-.4,698.9" transform="translate(0.4 -162.197)" fill="none" stroke="#09f" stroke-miterlimit="10" stroke-width="3"/>
      <path id="Path_26075_18_2" data-name="Path_26075_18_" d="M1920,688.9c-108.9,119.1-245.4,208.9-411.6,207-126-1.4-246.7-49.4-358.1-104.5C929.9,682.5,714.9,513.2,464,485.2,277.6,464.3,122.4,554.7-.4,688.9" transform="translate(0.4 -162.197)" fill="none" stroke="#09f" stroke-miterlimit="10" stroke-width="3"/>
      <path id="Path_26075_17_2" data-name="Path_26075_17_" d="M1920,678.9c-108.9,119.1-245.4,208.9-411.6,207-126-1.4-246.7-49.4-358.1-104.5C929.9,672.5,714.9,503.2,464,475.2,277.6,454.3,122.4,544.7-.4,678.9" transform="translate(0.4 -162.197)" fill="none" stroke="#09f" stroke-miterlimit="10" stroke-width="3"/>
      <path id="Path_26075_16_2" data-name="Path_26075_16_" d="M1920,668.9c-108.9,119.1-245.4,208.9-411.6,207-126-1.4-246.7-49.4-358.1-104.5C929.9,662.5,714.9,493.2,464,465.2,277.6,444.3,122.4,534.7-.4,668.9" transform="translate(0.4 -162.197)" fill="none" stroke="#09f" stroke-miterlimit="10" stroke-width="3"/>
      <path id="Path_26075_15_2" data-name="Path_26075_15_" d="M1920,658.9c-108.9,119.1-245.4,208.9-411.6,207-126-1.4-246.7-49.4-358.1-104.5C929.9,652.5,714.9,483.2,464,455.2,277.6,434.3,122.4,524.7-.4,658.9" transform="translate(0.4 -162.197)" fill="none" stroke="#09f" stroke-miterlimit="10" stroke-width="3"/>
      <path id="Path_26075_14_2" data-name="Path_26075_14_" d="M1920,648.9c-108.9,119.1-245.4,208.9-411.6,207-126-1.4-246.7-49.4-358.1-104.5C929.9,642.5,714.9,473.2,464,445.2,277.6,424.3,122.4,514.7-.4,648.9" transform="translate(0.4 -162.197)" fill="none" stroke="#09f" stroke-miterlimit="10" stroke-width="3"/>
      <path id="Path_26075_13_2" data-name="Path_26075_13_" d="M1920,638.9c-108.9,119.1-245.4,208.9-411.6,207-126-1.4-246.7-49.4-358.1-104.5C929.9,632.5,714.9,463.2,464,435.2,277.6,414.3,122.4,504.7-.4,638.9" transform="translate(0.4 -162.197)" fill="none" stroke="#09f" stroke-miterlimit="10" stroke-width="3"/>
      <path id="Path_26075_12_2" data-name="Path_26075_12_" d="M1920,628.9c-108.9,119.1-245.4,208.9-411.6,207-126-1.4-246.7-49.4-358.1-104.5C929.9,622.5,714.9,453.2,464,425.2,277.6,404.3,122.4,494.7-.4,628.9" transform="translate(0.4 -162.197)" fill="none" stroke="#09f" stroke-miterlimit="10" stroke-width="3"/>
      <path id="Path_26075_11_2" data-name="Path_26075_11_" d="M1920,618.9c-108.9,119.1-245.4,208.9-411.6,207-126-1.4-246.7-49.4-358.1-104.5C929.9,612.5,714.9,443.2,464,415.2,277.6,394.3,122.4,484.7-.4,618.9" transform="translate(0.4 -162.197)" fill="none" stroke="#09f" stroke-miterlimit="10" stroke-width="3"/>
      <path id="Path_26075_34_2" data-name="Path_26075_34_" d="M1920,608.9c-108.9,119.1-245.4,208.9-411.6,207-126-1.4-246.7-49.4-358.1-104.5C929.9,602.5,714.9,433.2,464,405.2,277.6,384.3,122.4,474.7-.4,608.9" transform="translate(0.4 -162.197)" fill="none" stroke="#09f" stroke-miterlimit="10" stroke-width="3"/>
      <path id="Path_26075_33_2" data-name="Path_26075_33_" d="M1920,598.9c-108.9,119.1-245.4,208.9-411.6,207-126-1.4-246.7-49.4-358.1-104.5C929.9,592.5,714.9,423.2,464,395.2,277.6,374.3,122.4,464.7-.4,598.9" transform="translate(0.4 -162.197)" fill="none" stroke="#09f" stroke-miterlimit="10" stroke-width="3"/>
      <path id="Path_26075_32_2" data-name="Path_26075_32_" d="M1920,588.9c-108.9,119.1-245.4,208.9-411.6,207-126-1.4-246.7-49.4-358.1-104.5C929.9,582.5,714.9,413.2,464,385.2,277.6,364.3,122.4,454.7-.4,588.9" transform="translate(0.4 -162.197)" fill="none" stroke="#09f" stroke-miterlimit="10" stroke-width="3"/>
      <path id="Path_26075_31_2" data-name="Path_26075_31_" d="M1920,578.9c-108.9,119.1-245.4,208.9-411.6,207-126-1.4-246.7-49.4-358.1-104.5C929.9,572.5,714.9,403.2,464,375.2,277.6,354.3,122.4,444.7-.4,578.9" transform="translate(0.4 -162.197)" fill="none" stroke="#09f" stroke-miterlimit="10" stroke-width="3"/>
      <path id="Path_26075_30_2" data-name="Path_26075_30_" d="M1920,568.9c-108.9,119.1-245.4,208.9-411.6,207-126-1.4-246.7-49.4-358.1-104.5C929.9,562.5,714.9,393.2,464,365.2,277.6,344.3,122.4,434.7-.4,568.9" transform="translate(0.4 -162.197)" fill="none" stroke="#09f" stroke-miterlimit="10" stroke-width="3"/>
      <path id="Path_26075_29_2" data-name="Path_26075_29_" d="M1920,558.9c-108.9,119.1-245.4,208.9-411.6,207-126-1.4-246.7-49.4-358.1-104.5C929.9,552.5,714.9,383.2,464,355.2,277.6,334.3,122.4,424.7-.4,558.9" transform="translate(0.4 -162.197)" fill="none" stroke="#09f" stroke-miterlimit="10" stroke-width="3"/>
      <path id="Path_26075_28_2" data-name="Path_26075_28_" d="M1920,548.9c-108.9,119.1-245.4,208.9-411.6,207-126-1.4-246.7-49.4-358.1-104.5C929.9,542.5,714.9,373.2,464,345.2,277.6,324.3,122.4,414.7-.4,548.9" transform="translate(0.4 -162.197)" fill="none" stroke="#09f" stroke-miterlimit="10" stroke-width="3"/>
      <path id="Path_26075_27_2" data-name="Path_26075_27_" d="M1920,538.9c-108.9,119.1-245.4,208.9-411.6,207-126-1.4-246.7-49.4-358.1-104.5C929.9,532.5,714.9,363.2,464,335.2,277.6,314.3,122.4,404.7-.4,538.9" transform="translate(0.4 -162.197)" fill="none" stroke="#09f" stroke-miterlimit="10" stroke-width="3"/>
      <path id="Path_26075_26_2" data-name="Path_26075_26_" d="M1920,528.9c-108.9,119.1-245.4,208.9-411.6,207-126-1.4-246.7-49.4-358.1-104.5C929.9,522.5,714.9,353.2,464,325.2,277.6,304.3,122.4,394.7-.4,528.9" transform="translate(0.4 -162.197)" fill="none" stroke="#09f" stroke-miterlimit="10" stroke-width="3"/>
      <path id="Path_26075_25_" d="M1920,518.9c-108.9,119.1-245.4,208.9-411.6,207-126-1.4-246.7-49.4-358.1-104.5C929.9,512.5,714.9,343.2,464,315.2,277.6,294.3,122.4,384.7-.4,518.9" transform="translate(0.4 -162.197)" fill="none" stroke="#09f" stroke-miterlimit="10" stroke-width="3"/>
      <path id="Path_26075_24_" d="M1920,508.9c-108.9,119.1-245.4,208.9-411.6,207-126-1.4-246.7-49.4-358.1-104.5C929.9,502.5,714.9,333.2,464,305.2,277.6,284.3,122.4,374.7-.4,508.9" transform="translate(0.4 -162.197)" fill="none" stroke="#09f" stroke-miterlimit="10" stroke-width="3"/>
      <path id="Path_26075_23_" d="M1920,498.9c-108.9,119.1-245.4,208.9-411.6,207-126-1.4-246.7-49.4-358.1-104.5C929.9,492.5,714.9,323.2,464,295.2,277.6,274.3,122.4,364.7-.4,498.9" transform="translate(0.4 -162.197)" fill="none" stroke="#09f" stroke-miterlimit="10" stroke-width="3"/>
      <path id="Path_26075_22_" d="M1920,488.9c-108.9,119.1-245.4,208.9-411.6,207-126-1.4-246.7-49.4-358.1-104.5C929.9,482.5,714.9,313.2,464,285.2,277.6,264.3,122.4,354.7-.4,488.9" transform="translate(0.4 -162.197)" fill="none" stroke="#09f" stroke-miterlimit="10" stroke-width="3"/>
      <path id="Path_26075_21_" d="M1920,478.9c-108.9,119.1-245.4,208.9-411.6,207-126-1.4-246.7-49.4-358.1-104.5C929.9,472.5,714.9,303.2,464,275.2,277.6,254.3,122.4,344.7-.4,478.9" transform="translate(0.4 -162.197)" fill="none" stroke="#09f" stroke-miterlimit="10" stroke-width="3"/>
      <path id="Path_26075_20_" d="M1920,468.9c-108.9,119.1-245.4,208.9-411.6,207-126-1.4-246.7-49.4-358.1-104.5C929.9,462.5,714.9,293.2,464,265.2,277.6,244.3,122.4,334.7-.4,468.9" transform="translate(0.4 -162.197)" fill="none" stroke="#09f" stroke-miterlimit="10" stroke-width="3"/>
      <path id="Path_26075_19_" d="M1920,458.9c-108.9,119.1-245.4,208.9-411.6,207-126-1.4-246.7-49.4-358.1-104.5C929.9,452.5,714.9,283.2,464,255.2,277.6,234.3,122.4,324.7-.4,458.9" transform="translate(0.4 -162.197)" fill="none" stroke="#09f" stroke-miterlimit="10" stroke-width="3"/>
      <path id="Path_26075_66_" d="M1920,448.9c-108.9,119.1-245.4,208.9-411.6,207-126-1.4-246.7-49.4-358.1-104.5C929.9,442.5,714.9,273.2,464,245.2,277.6,224.3,122.4,314.7-.4,448.9" transform="translate(0.4 -162.197)" fill="none" stroke="#09f" stroke-miterlimit="10" stroke-width="3"/>
      <path id="Path_26075_65_" d="M1920,438.9c-108.9,119.1-245.4,208.9-411.6,207-126-1.4-246.7-49.4-358.1-104.5C929.9,432.5,714.9,263.2,464,235.2,277.6,214.3,122.4,304.7-.4,438.9" transform="translate(0.4 -162.197)" fill="none" stroke="#09f" stroke-miterlimit="10" stroke-width="3"/>
      <path id="Path_26075_64_" d="M1920,428.9c-108.9,119.1-245.4,208.9-411.6,207-126-1.4-246.7-49.4-358.1-104.5C929.9,422.5,714.9,253.2,464,225.2,277.6,204.3,122.4,294.7-.4,428.9" transform="translate(0.4 -162.197)" fill="none" stroke="#09f" stroke-miterlimit="10" stroke-width="3"/>
      <path id="Path_26075_63_" d="M1920,418.9c-108.9,119.1-245.4,208.9-411.6,207-126-1.4-246.7-49.4-358.1-104.5C929.9,412.5,714.9,243.2,464,215.2,277.6,194.3,122.4,284.7-.4,418.9" transform="translate(0.4 -162.197)" fill="none" stroke="#09f" stroke-miterlimit="10" stroke-width="3"/>
      <path id="Path_26075_62_" d="M1920,408.9c-108.9,119.1-245.4,208.9-411.6,207-126-1.4-246.7-49.4-358.1-104.5C929.9,402.5,714.9,233.2,464,205.2,277.6,184.3,122.4,274.7-.4,408.9" transform="translate(0.4 -162.197)" fill="none" stroke="#09f" stroke-miterlimit="10" stroke-width="3"/>
      <path id="Path_26075_61_" d="M1920,398.9c-108.9,119.1-245.4,208.9-411.6,207-126-1.4-246.7-49.4-358.1-104.5C929.9,392.5,714.9,223.2,464,195.2,277.6,174.3,122.4,264.7-.4,398.9" transform="translate(0.4 -162.197)" fill="none" stroke="#09f" stroke-miterlimit="10" stroke-width="3"/>
      <path id="Path_26075_60_" d="M1920,388.9c-108.9,119.1-245.4,208.9-411.6,207-126-1.4-246.7-49.4-358.1-104.5C929.9,382.5,714.9,213.2,464,185.2,277.6,164.3,122.4,254.7-.4,388.9" transform="translate(0.4 -162.197)" fill="none" stroke="#09f" stroke-miterlimit="10" stroke-width="3"/>
      <path id="Path_26075_59_" d="M1920,378.9c-108.9,119.1-245.4,208.9-411.6,207-126-1.4-246.7-49.4-358.1-104.5C929.9,372.5,714.9,203.2,464,175.2,277.6,154.3,122.4,244.7-.4,378.9" transform="translate(0.4 -162.197)" fill="none" stroke="#09f" stroke-miterlimit="10" stroke-width="3"/>
    </g>
  </g>
</svg>
